<svg xmlns="http://www.w3.org/2000/svg" xmlns:xlink="http://www.w3.org/1999/xlink" width="500" zoomAndPan="magnify" viewBox="0 0 375 374.999991" height="500" preserveAspectRatio="xMidYMid meet" version="1.0"><defs><g/><clipPath id="f4455afec5"><path d="M 107.90625 239.386719 L 257.90625 239.386719 L 257.90625 240.136719 L 107.90625 240.136719 Z M 107.90625 239.386719 " clip-rule="nonzero"/></clipPath></defs><g fill="#fdfdfd" fill-opacity="1"><g transform="translate(91.078124, 138.576605)"><g><path d="M 18.203125 -20.484375 L 18.203125 -7.5625 C 18.203125 -5 17.503906 -3.019531 16.109375 -1.625 C 14.710938 -0.238281 12.710938 0.453125 10.109375 0.453125 C 7.503906 0.453125 5.5 -0.238281 4.09375 -1.625 C 2.6875 -3.019531 1.984375 -5 1.984375 -7.5625 L 1.984375 -20.484375 L 2.1875 -20.703125 L 3.953125 -20.703125 C 5.859375 -20.703125 6.8125 -19.679688 6.8125 -17.640625 L 6.8125 -7.5 C 6.8125 -6.101562 7.0625 -5.0625 7.5625 -4.375 C 8.0625 -3.695312 8.910156 -3.359375 10.109375 -3.359375 C 11.304688 -3.359375 12.15625 -3.695312 12.65625 -4.375 C 13.15625 -5.0625 13.40625 -6.101562 13.40625 -7.5 L 13.40625 -20.484375 C 14.03125 -20.609375 14.832031 -20.671875 15.8125 -20.671875 C 16.769531 -20.671875 17.566406 -20.609375 18.203125 -20.484375 Z M 18.203125 -20.484375 "/></g></g></g><g fill="#fdfdfd" fill-opacity="1"><g transform="translate(111.268098, 138.576605)"><g><path d="M 18.421875 -20.703125 L 18.625 -20.484375 L 18.625 -0.09375 C 17.832031 0.09375 16.890625 0.1875 15.796875 0.1875 C 14.703125 0.1875 13.738281 0.125 12.90625 0 L 8.1875 -10.734375 C 7.625 -11.953125 7.054688 -13.363281 6.484375 -14.96875 L 6.390625 -14.9375 C 6.628906 -12.019531 6.75 -9.03125 6.75 -5.96875 L 6.75 0 C 6.125 0.125 5.375 0.1875 4.5 0.1875 C 3.625 0.1875 2.882812 0.125 2.28125 0 L 2.28125 -20.40625 C 3.039062 -20.582031 3.953125 -20.671875 5.015625 -20.671875 C 6.085938 -20.671875 7.046875 -20.609375 7.890625 -20.484375 L 12.546875 -9.78125 C 13.378906 -7.800781 14 -6.28125 14.40625 -5.21875 L 14.515625 -5.28125 C 14.273438 -8.0625 14.15625 -11.007812 14.15625 -14.125 L 14.15625 -17.796875 C 14.15625 -18.828125 14.363281 -19.566406 14.78125 -20.015625 C 15.207031 -20.472656 15.890625 -20.703125 16.828125 -20.703125 Z M 18.421875 -20.703125 "/></g></g></g><g fill="#fdfdfd" fill-opacity="1"><g transform="translate(132.148083, 138.576605)"><g><path d="M 12.984375 -12.328125 L 12.984375 -12.6875 C 12.984375 -15.644531 11.882812 -17.125 9.6875 -17.125 C 8.425781 -17.125 7.515625 -16.550781 6.953125 -15.40625 C 6.398438 -14.257812 6.125 -12.5625 6.125 -10.3125 C 6.125 -8.09375 6.472656 -6.441406 7.171875 -5.359375 C 7.867188 -4.285156 8.890625 -3.75 10.234375 -3.75 C 10.929688 -3.75 11.703125 -3.910156 12.546875 -4.234375 C 13.398438 -4.566406 14.328125 -5.09375 15.328125 -5.8125 C 15.828125 -5.476562 16.289062 -5.015625 16.71875 -4.421875 C 17.15625 -3.835938 17.421875 -3.273438 17.515625 -2.734375 C 17.054688 -2.285156 16.519531 -1.867188 15.90625 -1.484375 C 15.300781 -1.097656 14.644531 -0.765625 13.9375 -0.484375 C 13.226562 -0.203125 12.488281 0.0195312 11.71875 0.1875 C 10.945312 0.363281 10.171875 0.453125 9.390625 0.453125 C 7.847656 0.453125 6.546875 0.160156 5.484375 -0.421875 C 4.429688 -1.015625 3.578125 -1.800781 2.921875 -2.78125 C 2.273438 -3.769531 1.804688 -4.898438 1.515625 -6.171875 C 1.222656 -7.453125 1.078125 -8.785156 1.078125 -10.171875 C 1.078125 -11.972656 1.300781 -13.546875 1.75 -14.890625 C 2.207031 -16.242188 2.816406 -17.367188 3.578125 -18.265625 C 4.347656 -19.171875 5.253906 -19.847656 6.296875 -20.296875 C 7.335938 -20.742188 8.445312 -20.96875 9.625 -20.96875 C 10.832031 -20.96875 11.925781 -20.804688 12.90625 -20.484375 C 13.882812 -20.171875 14.71875 -19.734375 15.40625 -19.171875 C 16.09375 -18.609375 16.617188 -17.945312 16.984375 -17.1875 C 17.359375 -16.425781 17.546875 -15.609375 17.546875 -14.734375 C 17.546875 -12.953125 16.632812 -12.0625 14.8125 -12.0625 C 14.28125 -12.0625 13.671875 -12.148438 12.984375 -12.328125 Z M 12.984375 -12.328125 "/></g></g></g><g fill="#fdfdfd" fill-opacity="1"><g transform="translate(150.418059, 138.576605)"><g><path d="M 6.71875 -5.578125 C 7.257812 -4.015625 8.347656 -3.234375 9.984375 -3.234375 C 10.804688 -3.234375 11.472656 -3.4375 11.984375 -3.84375 C 12.492188 -4.257812 12.894531 -4.78125 13.1875 -5.40625 C 13.476562 -6.039062 13.671875 -6.75 13.765625 -7.53125 C 13.867188 -8.3125 13.921875 -9.082031 13.921875 -9.84375 C 13.921875 -10.539062 13.894531 -11.316406 13.84375 -12.171875 C 13.789062 -13.035156 13.644531 -13.84375 13.40625 -14.59375 C 13.164062 -15.34375 12.785156 -15.972656 12.265625 -16.484375 C 11.742188 -16.992188 10.984375 -17.25 9.984375 -17.25 C 9.023438 -17.25 8.289062 -17.003906 7.78125 -16.515625 C 7.269531 -16.023438 6.890625 -15.421875 6.640625 -14.703125 C 6.390625 -13.984375 6.234375 -13.21875 6.171875 -12.40625 C 6.117188 -11.59375 6.09375 -10.878906 6.09375 -10.265625 C 6.09375 -9.335938 6.132812 -8.515625 6.21875 -7.796875 C 6.3125 -7.078125 6.476562 -6.335938 6.71875 -5.578125 Z M 4.296875 -1.4375 C 2.148438 -3.21875 1.078125 -6.148438 1.078125 -10.234375 C 1.078125 -11.992188 1.28125 -13.535156 1.6875 -14.859375 C 2.101562 -16.191406 2.695312 -17.304688 3.46875 -18.203125 C 4.238281 -19.109375 5.171875 -19.789062 6.265625 -20.25 C 7.367188 -20.707031 8.609375 -20.9375 9.984375 -20.9375 C 11.367188 -20.9375 12.613281 -20.707031 13.71875 -20.25 C 14.832031 -19.789062 15.773438 -19.101562 16.546875 -18.1875 C 17.316406 -17.28125 17.90625 -16.160156 18.3125 -14.828125 C 18.726562 -13.503906 18.9375 -11.972656 18.9375 -10.234375 C 18.9375 -8.492188 18.726562 -6.957031 18.3125 -5.625 C 17.90625 -4.289062 17.316406 -3.175781 16.546875 -2.28125 C 15.773438 -1.382812 14.832031 -0.703125 13.71875 -0.234375 C 12.613281 0.222656 11.367188 0.453125 9.984375 0.453125 C 7.703125 0.453125 5.804688 -0.175781 4.296875 -1.4375 Z M 4.296875 -1.4375 "/></g></g></g><g fill="#fdfdfd" fill-opacity="1"><g transform="translate(170.42804, 138.576605)"><g><path d="M 9.515625 -4.015625 L 13.4375 -20.484375 C 13.914062 -20.609375 14.535156 -20.671875 15.296875 -20.671875 C 16.335938 -20.671875 17.160156 -20.5625 17.765625 -20.34375 L 17.9375 -20.09375 L 12.328125 0 C 11.191406 0.125 10.046875 0.1875 8.890625 0.1875 C 7.742188 0.1875 6.914062 0.0390625 6.40625 -0.25 C 5.894531 -0.539062 5.507812 -1.117188 5.25 -1.984375 L 0.265625 -20.0625 C 1.347656 -20.53125 2.238281 -20.765625 2.9375 -20.765625 C 3.78125 -20.765625 4.398438 -20.570312 4.796875 -20.1875 C 5.203125 -19.8125 5.515625 -19.210938 5.734375 -18.390625 L 8.046875 -9.84375 C 8.398438 -8.5 8.78125 -6.675781 9.1875 -4.375 C 9.21875 -4.132812 9.328125 -4.015625 9.515625 -4.015625 Z M 9.515625 -4.015625 "/></g></g></g><g fill="#fdfdfd" fill-opacity="1"><g transform="translate(188.60802, 138.576605)"><g><path d="M 6.984375 -6.0625 L 6.953125 -3.90625 L 6.953125 -3.875 C 7.878906 -3.914062 8.625 -3.9375 9.1875 -3.9375 L 16.140625 -3.9375 C 16.140625 -3.1875 16.109375 -2.613281 16.046875 -2.21875 C 15.804688 -0.675781 14.785156 0.09375 12.984375 0.09375 L 5.015625 0.09375 C 4.148438 0.09375 3.472656 -0.15625 2.984375 -0.65625 C 2.492188 -1.15625 2.25 -1.835938 2.25 -2.703125 L 2.25 -20.28125 L 2.453125 -20.484375 L 15.390625 -20.484375 C 15.503906 -19.910156 15.5625 -19.28125 15.5625 -18.59375 C 15.5625 -17.914062 15.425781 -17.207031 15.15625 -16.46875 L 6.953125 -16.46875 L 6.984375 -14.3125 L 6.984375 -12.203125 C 7.503906 -12.222656 8.1875 -12.234375 9.03125 -12.234375 L 13.625 -12.234375 C 13.800781 -11.679688 13.890625 -11.039062 13.890625 -10.3125 C 13.890625 -9.59375 13.800781 -8.9375 13.625 -8.34375 L 6.984375 -8.34375 Z M 6.984375 -6.0625 "/></g></g></g><g fill="#fdfdfd" fill-opacity="1"><g transform="translate(205.798006, 138.576605)"><g><path d="M 16.984375 -14.15625 C 16.984375 -13.5 16.878906 -12.875 16.671875 -12.28125 C 16.472656 -11.695312 16.207031 -11.164062 15.875 -10.6875 C 15.550781 -10.21875 15.164062 -9.804688 14.71875 -9.453125 C 14.269531 -9.109375 13.800781 -8.847656 13.3125 -8.671875 C 14.351562 -8.285156 15.125 -7.363281 15.625 -5.90625 L 16.53125 -3.359375 C 16.875 -2.359375 17.375 -1.617188 18.03125 -1.140625 C 17.726562 -0.742188 17.273438 -0.410156 16.671875 -0.140625 C 16.078125 0.128906 15.421875 0.265625 14.703125 0.265625 C 13.984375 0.265625 13.421875 0.0625 13.015625 -0.34375 C 12.617188 -0.75 12.25 -1.460938 11.90625 -2.484375 L 10.828125 -5.640625 C 10.609375 -6.242188 10.3125 -6.703125 9.9375 -7.015625 C 9.570312 -7.335938 9.019531 -7.5 8.28125 -7.5 L 7.046875 -7.5 L 7.046875 0 C 6.410156 0.125 5.613281 0.1875 4.65625 0.1875 C 3.6875 0.1875 2.894531 0.125 2.28125 0 L 2.28125 -20.34375 L 2.484375 -20.546875 C 4.222656 -20.585938 5.6875 -20.617188 6.875 -20.640625 C 8.070312 -20.660156 9.007812 -20.671875 9.6875 -20.671875 C 10.789062 -20.671875 11.789062 -20.535156 12.6875 -20.265625 C 13.59375 -19.992188 14.359375 -19.585938 14.984375 -19.046875 C 15.617188 -18.503906 16.109375 -17.820312 16.453125 -17 C 16.804688 -16.1875 16.984375 -15.238281 16.984375 -14.15625 Z M 7.046875 -17.0625 L 7.046875 -11.1875 C 7.953125 -11.1875 8.722656 -11.203125 9.359375 -11.234375 C 9.992188 -11.265625 10.503906 -11.382812 10.890625 -11.59375 C 11.285156 -11.800781 11.582031 -12.09375 11.78125 -12.46875 C 11.988281 -12.851562 12.09375 -13.40625 12.09375 -14.125 C 12.09375 -16.070312 11.148438 -17.046875 9.265625 -17.046875 C 8.804688 -17.046875 8.390625 -17.046875 8.015625 -17.046875 C 7.648438 -17.046875 7.328125 -17.050781 7.046875 -17.0625 Z M 7.046875 -17.0625 "/></g></g></g><g fill="#fdfdfd" fill-opacity="1"><g transform="translate(224.247987, 138.576605)"><g/></g></g><g fill="#fdfdfd" fill-opacity="1"><g transform="translate(230.847978, 138.576605)"><g><path d="M 10.046875 -16.53125 L 10.078125 -14.3125 L 10.078125 0 C 9.398438 0.125 8.585938 0.1875 7.640625 0.1875 C 6.703125 0.1875 5.914062 0.125 5.28125 0 L 5.28125 -16.53125 L 3.359375 -16.5 L 0.265625 -16.5 C 0.148438 -17.082031 0.09375 -17.75 0.09375 -18.5 C 0.09375 -19.25 0.148438 -19.910156 0.265625 -20.484375 L 15.125 -20.484375 C 15.28125 -19.960938 15.359375 -19.332031 15.359375 -18.59375 C 15.359375 -17.851562 15.15625 -17.316406 14.75 -16.984375 C 14.351562 -16.660156 13.71875 -16.5 12.84375 -16.5 L 11.96875 -16.5 L 10.078125 -16.53125 Z M 10.046875 -16.53125 "/></g></g></g><g fill="#fdfdfd" fill-opacity="1"><g transform="translate(246.147961, 138.576605)"><g><path d="M 13.53125 -12.546875 L 13.5 -14.765625 L 13.5 -20.484375 C 14.125 -20.609375 14.929688 -20.671875 15.921875 -20.671875 C 16.910156 -20.671875 17.703125 -20.609375 18.296875 -20.484375 L 18.296875 0 C 17.660156 0.125 16.859375 0.1875 15.890625 0.1875 C 14.929688 0.1875 14.132812 0.125 13.5 0 L 13.5 -6.359375 L 13.53125 -8.578125 L 12.03125 -8.546875 L 8.546875 -8.546875 L 7.046875 -8.578125 L 7.078125 -6.359375 L 7.078125 0 C 6.460938 0.125 5.660156 0.1875 4.671875 0.1875 C 3.691406 0.1875 2.894531 0.125 2.28125 0 L 2.28125 -20.484375 C 2.894531 -20.609375 3.691406 -20.671875 4.671875 -20.671875 C 5.660156 -20.671875 6.460938 -20.609375 7.078125 -20.484375 L 7.078125 -14.765625 L 7.046875 -12.546875 L 8.546875 -12.5625 L 12.03125 -12.5625 Z M 13.53125 -12.546875 "/></g></g></g><g fill="#fdfdfd" fill-opacity="1"><g transform="translate(266.727939, 138.576605)"><g><path d="M 6.984375 -6.0625 L 6.953125 -3.90625 L 6.953125 -3.875 C 7.878906 -3.914062 8.625 -3.9375 9.1875 -3.9375 L 16.140625 -3.9375 C 16.140625 -3.1875 16.109375 -2.613281 16.046875 -2.21875 C 15.804688 -0.675781 14.785156 0.09375 12.984375 0.09375 L 5.015625 0.09375 C 4.148438 0.09375 3.472656 -0.15625 2.984375 -0.65625 C 2.492188 -1.15625 2.25 -1.835938 2.25 -2.703125 L 2.25 -20.28125 L 2.453125 -20.484375 L 15.390625 -20.484375 C 15.503906 -19.910156 15.5625 -19.28125 15.5625 -18.59375 C 15.5625 -17.914062 15.425781 -17.207031 15.15625 -16.46875 L 6.953125 -16.46875 L 6.984375 -14.3125 L 6.984375 -12.203125 C 7.503906 -12.222656 8.1875 -12.234375 9.03125 -12.234375 L 13.625 -12.234375 C 13.800781 -11.679688 13.890625 -11.039062 13.890625 -10.3125 C 13.890625 -9.59375 13.800781 -8.9375 13.625 -8.34375 L 6.984375 -8.34375 Z M 6.984375 -6.0625 "/></g></g></g><g fill="#fdfdfd" fill-opacity="1"><g transform="translate(37.71094, 179.076603)"><g><path d="M 6.984375 -6.0625 L 6.953125 -3.90625 L 6.953125 -3.875 C 7.878906 -3.914062 8.625 -3.9375 9.1875 -3.9375 L 16.140625 -3.9375 C 16.140625 -3.1875 16.109375 -2.613281 16.046875 -2.21875 C 15.804688 -0.675781 14.785156 0.09375 12.984375 0.09375 L 5.015625 0.09375 C 4.148438 0.09375 3.472656 -0.15625 2.984375 -0.65625 C 2.492188 -1.15625 2.25 -1.835938 2.25 -2.703125 L 2.25 -20.28125 L 2.453125 -20.484375 L 15.390625 -20.484375 C 15.503906 -19.910156 15.5625 -19.28125 15.5625 -18.59375 C 15.5625 -17.914062 15.425781 -17.207031 15.15625 -16.46875 L 6.953125 -16.46875 L 6.984375 -14.3125 L 6.984375 -12.203125 C 7.503906 -12.222656 8.1875 -12.234375 9.03125 -12.234375 L 13.625 -12.234375 C 13.800781 -11.679688 13.890625 -11.039062 13.890625 -10.3125 C 13.890625 -9.59375 13.800781 -8.9375 13.625 -8.34375 L 6.984375 -8.34375 Z M 6.984375 -6.0625 "/></g></g></g><g fill="#fdfdfd" fill-opacity="1"><g transform="translate(54.900926, 179.076603)"><g><path d="M 12.984375 -20.484375 C 13.484375 -20.609375 14.15625 -20.671875 15 -20.671875 C 15.957031 -20.671875 16.785156 -20.53125 17.484375 -20.25 L 17.609375 -20.046875 L 11.96875 -10.765625 L 18.234375 -0.75 C 17.179688 -0.0507812 16.234375 0.296875 15.390625 0.296875 C 14.503906 0.296875 13.832031 0.15625 13.375 -0.125 C 12.914062 -0.40625 12.457031 -0.894531 12 -1.59375 L 8.875 -6.625 L 4.953125 0 C 4.453125 0.125 3.757812 0.1875 2.875 0.1875 C 2 0.1875 1.160156 0.046875 0.359375 -0.234375 L 0.234375 -0.484375 L 6.421875 -10.5625 L 0.71875 -19.734375 C 1.78125 -20.441406 2.726562 -20.796875 3.5625 -20.796875 C 4.445312 -20.796875 5.113281 -20.65625 5.5625 -20.375 C 6.007812 -20.09375 6.457031 -19.601562 6.90625 -18.90625 L 9.546875 -14.640625 Z M 12.984375 -20.484375 "/></g></g></g><g fill="#fdfdfd" fill-opacity="1"><g transform="translate(73.380912, 179.076603)"><g><path d="M 12.984375 -12.328125 L 12.984375 -12.6875 C 12.984375 -15.644531 11.882812 -17.125 9.6875 -17.125 C 8.425781 -17.125 7.515625 -16.550781 6.953125 -15.40625 C 6.398438 -14.257812 6.125 -12.5625 6.125 -10.3125 C 6.125 -8.09375 6.472656 -6.441406 7.171875 -5.359375 C 7.867188 -4.285156 8.890625 -3.75 10.234375 -3.75 C 10.929688 -3.75 11.703125 -3.910156 12.546875 -4.234375 C 13.398438 -4.566406 14.328125 -5.09375 15.328125 -5.8125 C 15.828125 -5.476562 16.289062 -5.015625 16.71875 -4.421875 C 17.15625 -3.835938 17.421875 -3.273438 17.515625 -2.734375 C 17.054688 -2.285156 16.519531 -1.867188 15.90625 -1.484375 C 15.300781 -1.097656 14.644531 -0.765625 13.9375 -0.484375 C 13.226562 -0.203125 12.488281 0.0195312 11.71875 0.1875 C 10.945312 0.363281 10.171875 0.453125 9.390625 0.453125 C 7.847656 0.453125 6.546875 0.160156 5.484375 -0.421875 C 4.429688 -1.015625 3.578125 -1.800781 2.921875 -2.78125 C 2.273438 -3.769531 1.804688 -4.898438 1.515625 -6.171875 C 1.222656 -7.453125 1.078125 -8.785156 1.078125 -10.171875 C 1.078125 -11.972656 1.300781 -13.546875 1.75 -14.890625 C 2.207031 -16.242188 2.816406 -17.367188 3.578125 -18.265625 C 4.347656 -19.171875 5.253906 -19.847656 6.296875 -20.296875 C 7.335938 -20.742188 8.445312 -20.96875 9.625 -20.96875 C 10.832031 -20.96875 11.925781 -20.804688 12.90625 -20.484375 C 13.882812 -20.171875 14.71875 -19.734375 15.40625 -19.171875 C 16.09375 -18.609375 16.617188 -17.945312 16.984375 -17.1875 C 17.359375 -16.425781 17.546875 -15.609375 17.546875 -14.734375 C 17.546875 -12.953125 16.632812 -12.0625 14.8125 -12.0625 C 14.28125 -12.0625 13.671875 -12.148438 12.984375 -12.328125 Z M 12.984375 -12.328125 "/></g></g></g><g fill="#fdfdfd" fill-opacity="1"><g transform="translate(91.650889, 179.076603)"><g><path d="M 2.34375 0 L 2.34375 -20.484375 C 2.957031 -20.609375 3.753906 -20.671875 4.734375 -20.671875 C 5.710938 -20.671875 6.523438 -20.609375 7.171875 -20.484375 L 7.171875 0 C 6.523438 0.125 5.710938 0.1875 4.734375 0.1875 C 3.753906 0.1875 2.957031 0.125 2.34375 0 Z M 2.34375 0 "/></g></g></g><g fill="#fdfdfd" fill-opacity="1"><g transform="translate(101.160883, 179.076603)"><g><path d="M 10.046875 -16.53125 L 10.078125 -14.3125 L 10.078125 0 C 9.398438 0.125 8.585938 0.1875 7.640625 0.1875 C 6.703125 0.1875 5.914062 0.125 5.28125 0 L 5.28125 -16.53125 L 3.359375 -16.5 L 0.265625 -16.5 C 0.148438 -17.082031 0.09375 -17.75 0.09375 -18.5 C 0.09375 -19.25 0.148438 -19.910156 0.265625 -20.484375 L 15.125 -20.484375 C 15.28125 -19.960938 15.359375 -19.332031 15.359375 -18.59375 C 15.359375 -17.851562 15.15625 -17.316406 14.75 -16.984375 C 14.351562 -16.660156 13.71875 -16.5 12.84375 -16.5 L 11.96875 -16.5 L 10.078125 -16.53125 Z M 10.046875 -16.53125 "/></g></g></g><g fill="#fdfdfd" fill-opacity="1"><g transform="translate(116.460866, 179.076603)"><g><path d="M 6.984375 -6.0625 L 6.953125 -3.90625 L 6.953125 -3.875 C 7.878906 -3.914062 8.625 -3.9375 9.1875 -3.9375 L 16.140625 -3.9375 C 16.140625 -3.1875 16.109375 -2.613281 16.046875 -2.21875 C 15.804688 -0.675781 14.785156 0.09375 12.984375 0.09375 L 5.015625 0.09375 C 4.148438 0.09375 3.472656 -0.15625 2.984375 -0.65625 C 2.492188 -1.15625 2.25 -1.835938 2.25 -2.703125 L 2.25 -20.28125 L 2.453125 -20.484375 L 15.390625 -20.484375 C 15.503906 -19.910156 15.5625 -19.28125 15.5625 -18.59375 C 15.5625 -17.914062 15.425781 -17.207031 15.15625 -16.46875 L 6.953125 -16.46875 L 6.984375 -14.3125 L 6.984375 -12.203125 C 7.503906 -12.222656 8.1875 -12.234375 9.03125 -12.234375 L 13.625 -12.234375 C 13.800781 -11.679688 13.890625 -11.039062 13.890625 -10.3125 C 13.890625 -9.59375 13.800781 -8.9375 13.625 -8.34375 L 6.984375 -8.34375 Z M 6.984375 -6.0625 "/></g></g></g><g fill="#fdfdfd" fill-opacity="1"><g transform="translate(133.650852, 179.076603)"><g><path d="M 1.65625 -0.0625 L 3.234375 -20.453125 C 4.117188 -20.617188 5.160156 -20.703125 6.359375 -20.703125 C 7.554688 -20.703125 8.609375 -20.617188 9.515625 -20.453125 L 11.28125 -13.109375 C 11.976562 -9.785156 12.347656 -7.976562 12.390625 -7.6875 L 12.59375 -7.6875 C 12.675781 -8.1875 13.046875 -9.992188 13.703125 -13.109375 L 15.515625 -20.453125 C 16.390625 -20.617188 17.425781 -20.703125 18.625 -20.703125 C 19.832031 -20.703125 20.882812 -20.617188 21.78125 -20.453125 L 23.375 -0.0625 C 22.75 0.101562 21.976562 0.1875 21.0625 0.1875 C 20.15625 0.1875 19.414062 0.132812 18.84375 0.03125 L 18.359375 -8.3125 C 18.222656 -11.632812 18.144531 -13.941406 18.125 -15.234375 L 17.9375 -15.234375 L 14.96875 -3.03125 C 14.25 -2.90625 13.421875 -2.84375 12.484375 -2.84375 C 11.554688 -2.84375 10.734375 -2.90625 10.015625 -3.03125 L 7.078125 -15.234375 L 6.875 -15.234375 C 6.875 -13.453125 6.789062 -11.144531 6.625 -8.3125 L 6.1875 0.03125 C 5.601562 0.132812 4.851562 0.1875 3.9375 0.1875 C 3.03125 0.1875 2.269531 0.101562 1.65625 -0.0625 Z M 1.65625 -0.0625 "/></g></g></g><g fill="#fdfdfd" fill-opacity="1"><g transform="translate(158.640822, 179.076603)"><g><path d="M 6.984375 -6.0625 L 6.953125 -3.90625 L 6.953125 -3.875 C 7.878906 -3.914062 8.625 -3.9375 9.1875 -3.9375 L 16.140625 -3.9375 C 16.140625 -3.1875 16.109375 -2.613281 16.046875 -2.21875 C 15.804688 -0.675781 14.785156 0.09375 12.984375 0.09375 L 5.015625 0.09375 C 4.148438 0.09375 3.472656 -0.15625 2.984375 -0.65625 C 2.492188 -1.15625 2.25 -1.835938 2.25 -2.703125 L 2.25 -20.28125 L 2.453125 -20.484375 L 15.390625 -20.484375 C 15.503906 -19.910156 15.5625 -19.28125 15.5625 -18.59375 C 15.5625 -17.914062 15.425781 -17.207031 15.15625 -16.46875 L 6.953125 -16.46875 L 6.984375 -14.3125 L 6.984375 -12.203125 C 7.503906 -12.222656 8.1875 -12.234375 9.03125 -12.234375 L 13.625 -12.234375 C 13.800781 -11.679688 13.890625 -11.039062 13.890625 -10.3125 C 13.890625 -9.59375 13.800781 -8.9375 13.625 -8.34375 L 6.984375 -8.34375 Z M 6.984375 -6.0625 "/></g></g></g><g fill="#fdfdfd" fill-opacity="1"><g transform="translate(175.830808, 179.076603)"><g><path d="M 18.421875 -20.703125 L 18.625 -20.484375 L 18.625 -0.09375 C 17.832031 0.09375 16.890625 0.1875 15.796875 0.1875 C 14.703125 0.1875 13.738281 0.125 12.90625 0 L 8.1875 -10.734375 C 7.625 -11.953125 7.054688 -13.363281 6.484375 -14.96875 L 6.390625 -14.9375 C 6.628906 -12.019531 6.75 -9.03125 6.75 -5.96875 L 6.75 0 C 6.125 0.125 5.375 0.1875 4.5 0.1875 C 3.625 0.1875 2.882812 0.125 2.28125 0 L 2.28125 -20.40625 C 3.039062 -20.582031 3.953125 -20.671875 5.015625 -20.671875 C 6.085938 -20.671875 7.046875 -20.609375 7.890625 -20.484375 L 12.546875 -9.78125 C 13.378906 -7.800781 14 -6.28125 14.40625 -5.21875 L 14.515625 -5.28125 C 14.273438 -8.0625 14.15625 -11.007812 14.15625 -14.125 L 14.15625 -17.796875 C 14.15625 -18.828125 14.363281 -19.566406 14.78125 -20.015625 C 15.207031 -20.472656 15.890625 -20.703125 16.828125 -20.703125 Z M 18.421875 -20.703125 "/></g></g></g><g fill="#fdfdfd" fill-opacity="1"><g transform="translate(196.710792, 179.076603)"><g><path d="M 10.046875 -16.53125 L 10.078125 -14.3125 L 10.078125 0 C 9.398438 0.125 8.585938 0.1875 7.640625 0.1875 C 6.703125 0.1875 5.914062 0.125 5.28125 0 L 5.28125 -16.53125 L 3.359375 -16.5 L 0.265625 -16.5 C 0.148438 -17.082031 0.09375 -17.75 0.09375 -18.5 C 0.09375 -19.25 0.148438 -19.910156 0.265625 -20.484375 L 15.125 -20.484375 C 15.28125 -19.960938 15.359375 -19.332031 15.359375 -18.59375 C 15.359375 -17.851562 15.15625 -17.316406 14.75 -16.984375 C 14.351562 -16.660156 13.71875 -16.5 12.84375 -16.5 L 11.96875 -16.5 L 10.078125 -16.53125 Z M 10.046875 -16.53125 "/></g></g></g><g fill="#fdfdfd" fill-opacity="1"><g transform="translate(212.010776, 179.076603)"><g/></g></g><g fill="#fdfdfd" fill-opacity="1"><g transform="translate(218.610766, 179.076603)"><g><path d="M 7.265625 -4.296875 C 6.722656 -4.296875 6.320312 -4.300781 6.0625 -4.3125 L 4.765625 0.03125 C 4.285156 0.144531 3.617188 0.203125 2.765625 0.203125 C 1.796875 0.203125 1.015625 0.09375 0.421875 -0.125 L 0.265625 -0.359375 L 6.875 -20.484375 C 7.65625 -20.609375 8.5625 -20.671875 9.59375 -20.671875 C 10.78125 -20.671875 11.722656 -20.597656 12.421875 -20.453125 L 18.90625 -0.296875 C 18.195312 0.078125 17.40625 0.265625 16.53125 0.265625 C 15.488281 0.265625 14.753906 0.0859375 14.328125 -0.265625 C 13.910156 -0.628906 13.554688 -1.320312 13.265625 -2.34375 L 12.6875 -4.3125 C 12.425781 -4.300781 12.035156 -4.296875 11.515625 -4.296875 Z M 7.171875 -8.0625 L 8.375 -8.09375 L 10.5625 -8.09375 C 10.65625 -8.09375 10.828125 -8.085938 11.078125 -8.078125 C 11.328125 -8.066406 11.515625 -8.0625 11.640625 -8.0625 L 11.125 -9.9375 C 10.644531 -11.613281 10.097656 -13.671875 9.484375 -16.109375 L 9.296875 -16.109375 C 9.140625 -15.242188 8.660156 -13.332031 7.859375 -10.375 Z M 7.171875 -8.0625 "/></g></g></g><g fill="#fdfdfd" fill-opacity="1"><g transform="translate(237.750745, 179.076603)"><g><path d="M 16.984375 -14.15625 C 16.984375 -13.5 16.878906 -12.875 16.671875 -12.28125 C 16.472656 -11.695312 16.207031 -11.164062 15.875 -10.6875 C 15.550781 -10.21875 15.164062 -9.804688 14.71875 -9.453125 C 14.269531 -9.109375 13.800781 -8.847656 13.3125 -8.671875 C 14.351562 -8.285156 15.125 -7.363281 15.625 -5.90625 L 16.53125 -3.359375 C 16.875 -2.359375 17.375 -1.617188 18.03125 -1.140625 C 17.726562 -0.742188 17.273438 -0.410156 16.671875 -0.140625 C 16.078125 0.128906 15.421875 0.265625 14.703125 0.265625 C 13.984375 0.265625 13.421875 0.0625 13.015625 -0.34375 C 12.617188 -0.75 12.25 -1.460938 11.90625 -2.484375 L 10.828125 -5.640625 C 10.609375 -6.242188 10.3125 -6.703125 9.9375 -7.015625 C 9.570312 -7.335938 9.019531 -7.5 8.28125 -7.5 L 7.046875 -7.5 L 7.046875 0 C 6.410156 0.125 5.613281 0.1875 4.65625 0.1875 C 3.6875 0.1875 2.894531 0.125 2.28125 0 L 2.28125 -20.34375 L 2.484375 -20.546875 C 4.222656 -20.585938 5.6875 -20.617188 6.875 -20.640625 C 8.070312 -20.660156 9.007812 -20.671875 9.6875 -20.671875 C 10.789062 -20.671875 11.789062 -20.535156 12.6875 -20.265625 C 13.59375 -19.992188 14.359375 -19.585938 14.984375 -19.046875 C 15.617188 -18.503906 16.109375 -17.820312 16.453125 -17 C 16.804688 -16.1875 16.984375 -15.238281 16.984375 -14.15625 Z M 7.046875 -17.0625 L 7.046875 -11.1875 C 7.953125 -11.1875 8.722656 -11.203125 9.359375 -11.234375 C 9.992188 -11.265625 10.503906 -11.382812 10.890625 -11.59375 C 11.285156 -11.800781 11.582031 -12.09375 11.78125 -12.46875 C 11.988281 -12.851562 12.09375 -13.40625 12.09375 -14.125 C 12.09375 -16.070312 11.148438 -17.046875 9.265625 -17.046875 C 8.804688 -17.046875 8.390625 -17.046875 8.015625 -17.046875 C 7.648438 -17.046875 7.328125 -17.050781 7.046875 -17.0625 Z M 7.046875 -17.0625 "/></g></g></g><g fill="#fdfdfd" fill-opacity="1"><g transform="translate(256.200726, 179.076603)"><g><path d="M 6.71875 -5.578125 C 7.257812 -4.015625 8.347656 -3.234375 9.984375 -3.234375 C 10.804688 -3.234375 11.472656 -3.4375 11.984375 -3.84375 C 12.492188 -4.257812 12.894531 -4.78125 13.1875 -5.40625 C 13.476562 -6.039062 13.671875 -6.75 13.765625 -7.53125 C 13.867188 -8.3125 13.921875 -9.082031 13.921875 -9.84375 C 13.921875 -10.539062 13.894531 -11.316406 13.84375 -12.171875 C 13.789062 -13.035156 13.644531 -13.84375 13.40625 -14.59375 C 13.164062 -15.34375 12.785156 -15.972656 12.265625 -16.484375 C 11.742188 -16.992188 10.984375 -17.25 9.984375 -17.25 C 9.023438 -17.25 8.289062 -17.003906 7.78125 -16.515625 C 7.269531 -16.023438 6.890625 -15.421875 6.640625 -14.703125 C 6.390625 -13.984375 6.234375 -13.21875 6.171875 -12.40625 C 6.117188 -11.59375 6.09375 -10.878906 6.09375 -10.265625 C 6.09375 -9.335938 6.132812 -8.515625 6.21875 -7.796875 C 6.3125 -7.078125 6.476562 -6.335938 6.71875 -5.578125 Z M 4.296875 -1.4375 C 2.148438 -3.21875 1.078125 -6.148438 1.078125 -10.234375 C 1.078125 -11.992188 1.28125 -13.535156 1.6875 -14.859375 C 2.101562 -16.191406 2.695312 -17.304688 3.46875 -18.203125 C 4.238281 -19.109375 5.171875 -19.789062 6.265625 -20.25 C 7.367188 -20.707031 8.609375 -20.9375 9.984375 -20.9375 C 11.367188 -20.9375 12.613281 -20.707031 13.71875 -20.25 C 14.832031 -19.789062 15.773438 -19.101562 16.546875 -18.1875 C 17.316406 -17.28125 17.90625 -16.160156 18.3125 -14.828125 C 18.726562 -13.503906 18.9375 -11.972656 18.9375 -10.234375 C 18.9375 -8.492188 18.726562 -6.957031 18.3125 -5.625 C 17.90625 -4.289062 17.316406 -3.175781 16.546875 -2.28125 C 15.773438 -1.382812 14.832031 -0.703125 13.71875 -0.234375 C 12.613281 0.222656 11.367188 0.453125 9.984375 0.453125 C 7.703125 0.453125 5.804688 -0.175781 4.296875 -1.4375 Z M 4.296875 -1.4375 "/></g></g></g><g fill="#fdfdfd" fill-opacity="1"><g transform="translate(276.210696, 179.076603)"><g><path d="M 18.203125 -20.484375 L 18.203125 -7.5625 C 18.203125 -5 17.503906 -3.019531 16.109375 -1.625 C 14.710938 -0.238281 12.710938 0.453125 10.109375 0.453125 C 7.503906 0.453125 5.5 -0.238281 4.09375 -1.625 C 2.6875 -3.019531 1.984375 -5 1.984375 -7.5625 L 1.984375 -20.484375 L 2.1875 -20.703125 L 3.953125 -20.703125 C 5.859375 -20.703125 6.8125 -19.679688 6.8125 -17.640625 L 6.8125 -7.5 C 6.8125 -6.101562 7.0625 -5.0625 7.5625 -4.375 C 8.0625 -3.695312 8.910156 -3.359375 10.109375 -3.359375 C 11.304688 -3.359375 12.15625 -3.695312 12.65625 -4.375 C 13.15625 -5.0625 13.40625 -6.101562 13.40625 -7.5 L 13.40625 -20.484375 C 14.03125 -20.609375 14.832031 -20.671875 15.8125 -20.671875 C 16.769531 -20.671875 17.566406 -20.609375 18.203125 -20.484375 Z M 18.203125 -20.484375 "/></g></g></g><g fill="#fdfdfd" fill-opacity="1"><g transform="translate(296.400682, 179.076603)"><g><path d="M 18.421875 -20.703125 L 18.625 -20.484375 L 18.625 -0.09375 C 17.832031 0.09375 16.890625 0.1875 15.796875 0.1875 C 14.703125 0.1875 13.738281 0.125 12.90625 0 L 8.1875 -10.734375 C 7.625 -11.953125 7.054688 -13.363281 6.484375 -14.96875 L 6.390625 -14.9375 C 6.628906 -12.019531 6.75 -9.03125 6.75 -5.96875 L 6.75 0 C 6.125 0.125 5.375 0.1875 4.5 0.1875 C 3.625 0.1875 2.882812 0.125 2.28125 0 L 2.28125 -20.40625 C 3.039062 -20.582031 3.953125 -20.671875 5.015625 -20.671875 C 6.085938 -20.671875 7.046875 -20.609375 7.890625 -20.484375 L 12.546875 -9.78125 C 13.378906 -7.800781 14 -6.28125 14.40625 -5.21875 L 14.515625 -5.28125 C 14.273438 -8.0625 14.15625 -11.007812 14.15625 -14.125 L 14.15625 -17.796875 C 14.15625 -18.828125 14.363281 -19.566406 14.78125 -20.015625 C 15.207031 -20.472656 15.890625 -20.703125 16.828125 -20.703125 Z M 18.421875 -20.703125 "/></g></g></g><g fill="#fdfdfd" fill-opacity="1"><g transform="translate(317.280655, 179.076603)"><g><path d="M 15.546875 -1.3125 C 14.898438 -0.800781 14.054688 -0.421875 13.015625 -0.171875 C 11.972656 0.0664062 10.820312 0.1875 9.5625 0.1875 C 8.945312 0.1875 8.050781 0.175781 6.875 0.15625 C 5.707031 0.132812 4.242188 0.101562 2.484375 0.0625 L 2.28125 -0.15625 L 2.28125 -20.34375 L 2.484375 -20.546875 C 3.648438 -20.585938 4.859375 -20.617188 6.109375 -20.640625 C 7.359375 -20.660156 8.671875 -20.671875 10.046875 -20.671875 C 11.742188 -20.671875 13.160156 -20.398438 14.296875 -19.859375 C 15.441406 -19.316406 16.351562 -18.578125 17.03125 -17.640625 C 17.71875 -16.703125 18.203125 -15.597656 18.484375 -14.328125 C 18.765625 -13.054688 18.90625 -11.691406 18.90625 -10.234375 C 18.90625 -8.234375 18.671875 -6.5 18.203125 -5.03125 C 17.742188 -3.570312 16.859375 -2.332031 15.546875 -1.3125 Z M 10.015625 -3.5625 C 12.660156 -3.5625 13.984375 -5.785156 13.984375 -10.234375 C 13.984375 -14.691406 12.660156 -16.921875 10.015625 -16.921875 C 9.378906 -16.921875 8.816406 -16.921875 8.328125 -16.921875 C 7.835938 -16.921875 7.410156 -16.929688 7.046875 -16.953125 L 7.046875 -3.546875 C 7.410156 -3.554688 7.835938 -3.5625 8.328125 -3.5625 C 8.816406 -3.5625 9.378906 -3.5625 10.015625 -3.5625 Z M 10.015625 -3.5625 "/></g></g></g><g fill="#fdfdfd" fill-opacity="1"><g transform="translate(55.289063, 219.5766)"><g><path d="M 9.84375 -15.421875 L 11.84375 -20.484375 C 12.363281 -20.609375 13.035156 -20.671875 13.859375 -20.671875 C 14.742188 -20.671875 15.503906 -20.550781 16.140625 -20.3125 L 16.34375 -20.0625 L 10.53125 -6.296875 L 10.53125 0 C 9.90625 0.125 9.101562 0.1875 8.125 0.1875 C 7.144531 0.1875 6.347656 0.125 5.734375 0 L 5.734375 -6.421875 L -0.0625 -19.921875 C 0.851562 -20.460938 1.734375 -20.734375 2.578125 -20.734375 C 3.421875 -20.734375 4.023438 -20.585938 4.390625 -20.296875 C 4.765625 -20.003906 5.09375 -19.507812 5.375 -18.8125 L 6.8125 -15.234375 C 7.332031 -13.953125 7.78125 -12.523438 8.15625 -10.953125 L 8.34375 -10.953125 C 8.65625 -12.210938 9.15625 -13.703125 9.84375 -15.421875 Z M 9.84375 -15.421875 "/></g></g></g><g fill="#fdfdfd" fill-opacity="1"><g transform="translate(71.549045, 219.5766)"><g><path d="M 6.71875 -5.578125 C 7.257812 -4.015625 8.347656 -3.234375 9.984375 -3.234375 C 10.804688 -3.234375 11.472656 -3.4375 11.984375 -3.84375 C 12.492188 -4.257812 12.894531 -4.78125 13.1875 -5.40625 C 13.476562 -6.039062 13.671875 -6.75 13.765625 -7.53125 C 13.867188 -8.3125 13.921875 -9.082031 13.921875 -9.84375 C 13.921875 -10.539062 13.894531 -11.316406 13.84375 -12.171875 C 13.789062 -13.035156 13.644531 -13.84375 13.40625 -14.59375 C 13.164062 -15.34375 12.785156 -15.972656 12.265625 -16.484375 C 11.742188 -16.992188 10.984375 -17.25 9.984375 -17.25 C 9.023438 -17.25 8.289062 -17.003906 7.78125 -16.515625 C 7.269531 -16.023438 6.890625 -15.421875 6.640625 -14.703125 C 6.390625 -13.984375 6.234375 -13.21875 6.171875 -12.40625 C 6.117188 -11.59375 6.09375 -10.878906 6.09375 -10.265625 C 6.09375 -9.335938 6.132812 -8.515625 6.21875 -7.796875 C 6.3125 -7.078125 6.476562 -6.335938 6.71875 -5.578125 Z M 4.296875 -1.4375 C 2.148438 -3.21875 1.078125 -6.148438 1.078125 -10.234375 C 1.078125 -11.992188 1.28125 -13.535156 1.6875 -14.859375 C 2.101562 -16.191406 2.695312 -17.304688 3.46875 -18.203125 C 4.238281 -19.109375 5.171875 -19.789062 6.265625 -20.25 C 7.367188 -20.707031 8.609375 -20.9375 9.984375 -20.9375 C 11.367188 -20.9375 12.613281 -20.707031 13.71875 -20.25 C 14.832031 -19.789062 15.773438 -19.101562 16.546875 -18.1875 C 17.316406 -17.28125 17.90625 -16.160156 18.3125 -14.828125 C 18.726562 -13.503906 18.9375 -11.972656 18.9375 -10.234375 C 18.9375 -8.492188 18.726562 -6.957031 18.3125 -5.625 C 17.90625 -4.289062 17.316406 -3.175781 16.546875 -2.28125 C 15.773438 -1.382812 14.832031 -0.703125 13.71875 -0.234375 C 12.613281 0.222656 11.367188 0.453125 9.984375 0.453125 C 7.703125 0.453125 5.804688 -0.175781 4.296875 -1.4375 Z M 4.296875 -1.4375 "/></g></g></g><g fill="#fdfdfd" fill-opacity="1"><g transform="translate(91.559026, 219.5766)"><g><path d="M 18.203125 -20.484375 L 18.203125 -7.5625 C 18.203125 -5 17.503906 -3.019531 16.109375 -1.625 C 14.710938 -0.238281 12.710938 0.453125 10.109375 0.453125 C 7.503906 0.453125 5.5 -0.238281 4.09375 -1.625 C 2.6875 -3.019531 1.984375 -5 1.984375 -7.5625 L 1.984375 -20.484375 L 2.1875 -20.703125 L 3.953125 -20.703125 C 5.859375 -20.703125 6.8125 -19.679688 6.8125 -17.640625 L 6.8125 -7.5 C 6.8125 -6.101562 7.0625 -5.0625 7.5625 -4.375 C 8.0625 -3.695312 8.910156 -3.359375 10.109375 -3.359375 C 11.304688 -3.359375 12.15625 -3.695312 12.65625 -4.375 C 13.15625 -5.0625 13.40625 -6.101562 13.40625 -7.5 L 13.40625 -20.484375 C 14.03125 -20.609375 14.832031 -20.671875 15.8125 -20.671875 C 16.769531 -20.671875 17.566406 -20.609375 18.203125 -20.484375 Z M 18.203125 -20.484375 "/></g></g></g><g fill="#fdfdfd" fill-opacity="1"><g transform="translate(111.749001, 219.5766)"><g><path d="M 16.984375 -14.15625 C 16.984375 -13.5 16.878906 -12.875 16.671875 -12.28125 C 16.472656 -11.695312 16.207031 -11.164062 15.875 -10.6875 C 15.550781 -10.21875 15.164062 -9.804688 14.71875 -9.453125 C 14.269531 -9.109375 13.800781 -8.847656 13.3125 -8.671875 C 14.351562 -8.285156 15.125 -7.363281 15.625 -5.90625 L 16.53125 -3.359375 C 16.875 -2.359375 17.375 -1.617188 18.03125 -1.140625 C 17.726562 -0.742188 17.273438 -0.410156 16.671875 -0.140625 C 16.078125 0.128906 15.421875 0.265625 14.703125 0.265625 C 13.984375 0.265625 13.421875 0.0625 13.015625 -0.34375 C 12.617188 -0.75 12.25 -1.460938 11.90625 -2.484375 L 10.828125 -5.640625 C 10.609375 -6.242188 10.3125 -6.703125 9.9375 -7.015625 C 9.570312 -7.335938 9.019531 -7.5 8.28125 -7.5 L 7.046875 -7.5 L 7.046875 0 C 6.410156 0.125 5.613281 0.1875 4.65625 0.1875 C 3.6875 0.1875 2.894531 0.125 2.28125 0 L 2.28125 -20.34375 L 2.484375 -20.546875 C 4.222656 -20.585938 5.6875 -20.617188 6.875 -20.640625 C 8.070312 -20.660156 9.007812 -20.671875 9.6875 -20.671875 C 10.789062 -20.671875 11.789062 -20.535156 12.6875 -20.265625 C 13.59375 -19.992188 14.359375 -19.585938 14.984375 -19.046875 C 15.617188 -18.503906 16.109375 -17.820312 16.453125 -17 C 16.804688 -16.1875 16.984375 -15.238281 16.984375 -14.15625 Z M 7.046875 -17.0625 L 7.046875 -11.1875 C 7.953125 -11.1875 8.722656 -11.203125 9.359375 -11.234375 C 9.992188 -11.265625 10.503906 -11.382812 10.890625 -11.59375 C 11.285156 -11.800781 11.582031 -12.09375 11.78125 -12.46875 C 11.988281 -12.851562 12.09375 -13.40625 12.09375 -14.125 C 12.09375 -16.070312 11.148438 -17.046875 9.265625 -17.046875 C 8.804688 -17.046875 8.390625 -17.046875 8.015625 -17.046875 C 7.648438 -17.046875 7.328125 -17.050781 7.046875 -17.0625 Z M 7.046875 -17.0625 "/></g></g></g><g fill="#fdfdfd" fill-opacity="1"><g transform="translate(130.198982, 219.5766)"><g/></g></g><g fill="#fdfdfd" fill-opacity="1"><g transform="translate(136.798972, 219.5766)"><g><path d="M 12.984375 -12.328125 L 12.984375 -12.6875 C 12.984375 -15.644531 11.882812 -17.125 9.6875 -17.125 C 8.425781 -17.125 7.515625 -16.550781 6.953125 -15.40625 C 6.398438 -14.257812 6.125 -12.5625 6.125 -10.3125 C 6.125 -8.09375 6.472656 -6.441406 7.171875 -5.359375 C 7.867188 -4.285156 8.890625 -3.75 10.234375 -3.75 C 10.929688 -3.75 11.703125 -3.910156 12.546875 -4.234375 C 13.398438 -4.566406 14.328125 -5.09375 15.328125 -5.8125 C 15.828125 -5.476562 16.289062 -5.015625 16.71875 -4.421875 C 17.15625 -3.835938 17.421875 -3.273438 17.515625 -2.734375 C 17.054688 -2.285156 16.519531 -1.867188 15.90625 -1.484375 C 15.300781 -1.097656 14.644531 -0.765625 13.9375 -0.484375 C 13.226562 -0.203125 12.488281 0.0195312 11.71875 0.1875 C 10.945312 0.363281 10.171875 0.453125 9.390625 0.453125 C 7.847656 0.453125 6.546875 0.160156 5.484375 -0.421875 C 4.429688 -1.015625 3.578125 -1.800781 2.921875 -2.78125 C 2.273438 -3.769531 1.804688 -4.898438 1.515625 -6.171875 C 1.222656 -7.453125 1.078125 -8.785156 1.078125 -10.171875 C 1.078125 -11.972656 1.300781 -13.546875 1.75 -14.890625 C 2.207031 -16.242188 2.816406 -17.367188 3.578125 -18.265625 C 4.347656 -19.171875 5.253906 -19.847656 6.296875 -20.296875 C 7.335938 -20.742188 8.445312 -20.96875 9.625 -20.96875 C 10.832031 -20.96875 11.925781 -20.804688 12.90625 -20.484375 C 13.882812 -20.171875 14.71875 -19.734375 15.40625 -19.171875 C 16.09375 -18.609375 16.617188 -17.945312 16.984375 -17.1875 C 17.359375 -16.425781 17.546875 -15.609375 17.546875 -14.734375 C 17.546875 -12.953125 16.632812 -12.0625 14.8125 -12.0625 C 14.28125 -12.0625 13.671875 -12.148438 12.984375 -12.328125 Z M 12.984375 -12.328125 "/></g></g></g><g fill="#fdfdfd" fill-opacity="1"><g transform="translate(155.068949, 219.5766)"><g><path d="M 7.265625 -4.296875 C 6.722656 -4.296875 6.320312 -4.300781 6.0625 -4.3125 L 4.765625 0.03125 C 4.285156 0.144531 3.617188 0.203125 2.765625 0.203125 C 1.796875 0.203125 1.015625 0.09375 0.421875 -0.125 L 0.265625 -0.359375 L 6.875 -20.484375 C 7.65625 -20.609375 8.5625 -20.671875 9.59375 -20.671875 C 10.78125 -20.671875 11.722656 -20.597656 12.421875 -20.453125 L 18.90625 -0.296875 C 18.195312 0.078125 17.40625 0.265625 16.53125 0.265625 C 15.488281 0.265625 14.753906 0.0859375 14.328125 -0.265625 C 13.910156 -0.628906 13.554688 -1.320312 13.265625 -2.34375 L 12.6875 -4.3125 C 12.425781 -4.300781 12.035156 -4.296875 11.515625 -4.296875 Z M 7.171875 -8.0625 L 8.375 -8.09375 L 10.5625 -8.09375 C 10.65625 -8.09375 10.828125 -8.085938 11.078125 -8.078125 C 11.328125 -8.066406 11.515625 -8.0625 11.640625 -8.0625 L 11.125 -9.9375 C 10.644531 -11.613281 10.097656 -13.671875 9.484375 -16.109375 L 9.296875 -16.109375 C 9.140625 -15.242188 8.660156 -13.332031 7.859375 -10.375 Z M 7.171875 -8.0625 "/></g></g></g><g fill="#fdfdfd" fill-opacity="1"><g transform="translate(174.208928, 219.5766)"><g><path d="M 1.65625 -0.0625 L 3.234375 -20.453125 C 4.117188 -20.617188 5.160156 -20.703125 6.359375 -20.703125 C 7.554688 -20.703125 8.609375 -20.617188 9.515625 -20.453125 L 11.28125 -13.109375 C 11.976562 -9.785156 12.347656 -7.976562 12.390625 -7.6875 L 12.59375 -7.6875 C 12.675781 -8.1875 13.046875 -9.992188 13.703125 -13.109375 L 15.515625 -20.453125 C 16.390625 -20.617188 17.425781 -20.703125 18.625 -20.703125 C 19.832031 -20.703125 20.882812 -20.617188 21.78125 -20.453125 L 23.375 -0.0625 C 22.75 0.101562 21.976562 0.1875 21.0625 0.1875 C 20.15625 0.1875 19.414062 0.132812 18.84375 0.03125 L 18.359375 -8.3125 C 18.222656 -11.632812 18.144531 -13.941406 18.125 -15.234375 L 17.9375 -15.234375 L 14.96875 -3.03125 C 14.25 -2.90625 13.421875 -2.84375 12.484375 -2.84375 C 11.554688 -2.84375 10.734375 -2.90625 10.015625 -3.03125 L 7.078125 -15.234375 L 6.875 -15.234375 C 6.875 -13.453125 6.789062 -11.144531 6.625 -8.3125 L 6.1875 0.03125 C 5.601562 0.132812 4.851562 0.1875 3.9375 0.1875 C 3.03125 0.1875 2.269531 0.101562 1.65625 -0.0625 Z M 1.65625 -0.0625 "/></g></g></g><g fill="#fdfdfd" fill-opacity="1"><g transform="translate(199.198898, 219.5766)"><g><path d="M 9.453125 -6.421875 L 7.078125 -6.421875 L 7.078125 0 C 6.441406 0.125 5.644531 0.1875 4.6875 0.1875 C 3.695312 0.1875 2.894531 0.125 2.28125 0 L 2.28125 -20.34375 L 2.484375 -20.546875 C 4.222656 -20.585938 5.664062 -20.617188 6.8125 -20.640625 C 7.96875 -20.660156 8.847656 -20.671875 9.453125 -20.671875 C 10.546875 -20.671875 11.546875 -20.519531 12.453125 -20.21875 C 13.367188 -19.914062 14.144531 -19.460938 14.78125 -18.859375 C 15.425781 -18.265625 15.921875 -17.519531 16.265625 -16.625 C 16.617188 -15.738281 16.796875 -14.71875 16.796875 -13.5625 C 16.796875 -12.394531 16.613281 -11.367188 16.25 -10.484375 C 15.894531 -9.597656 15.394531 -8.851562 14.75 -8.25 C 14.113281 -7.644531 13.335938 -7.1875 12.421875 -6.875 C 11.515625 -6.570312 10.523438 -6.421875 9.453125 -6.421875 Z M 7.078125 -17.015625 L 7.078125 -10.015625 C 7.640625 -10.035156 8.082031 -10.050781 8.40625 -10.0625 C 8.738281 -10.070312 8.957031 -10.078125 9.0625 -10.078125 C 9.601562 -10.078125 10.050781 -10.171875 10.40625 -10.359375 C 10.769531 -10.554688 11.0625 -10.804688 11.28125 -11.109375 C 11.5 -11.421875 11.65625 -11.785156 11.75 -12.203125 C 11.851562 -12.628906 11.90625 -13.070312 11.90625 -13.53125 C 11.90625 -13.96875 11.851562 -14.394531 11.75 -14.8125 C 11.65625 -15.238281 11.503906 -15.609375 11.296875 -15.921875 C 11.085938 -16.242188 10.8125 -16.5 10.46875 -16.6875 C 10.125 -16.882812 9.722656 -16.984375 9.265625 -16.984375 C 8.804688 -16.984375 8.394531 -16.984375 8.03125 -16.984375 C 7.675781 -16.984375 7.359375 -16.992188 7.078125 -17.015625 Z M 7.078125 -17.015625 "/></g></g></g><g fill="#fdfdfd" fill-opacity="1"><g transform="translate(216.868883, 219.5766)"><g><path d="M 18.203125 -20.484375 L 18.203125 -7.5625 C 18.203125 -5 17.503906 -3.019531 16.109375 -1.625 C 14.710938 -0.238281 12.710938 0.453125 10.109375 0.453125 C 7.503906 0.453125 5.5 -0.238281 4.09375 -1.625 C 2.6875 -3.019531 1.984375 -5 1.984375 -7.5625 L 1.984375 -20.484375 L 2.1875 -20.703125 L 3.953125 -20.703125 C 5.859375 -20.703125 6.8125 -19.679688 6.8125 -17.640625 L 6.8125 -7.5 C 6.8125 -6.101562 7.0625 -5.0625 7.5625 -4.375 C 8.0625 -3.695312 8.910156 -3.359375 10.109375 -3.359375 C 11.304688 -3.359375 12.15625 -3.695312 12.65625 -4.375 C 13.15625 -5.0625 13.40625 -6.101562 13.40625 -7.5 L 13.40625 -20.484375 C 14.03125 -20.609375 14.832031 -20.671875 15.8125 -20.671875 C 16.769531 -20.671875 17.566406 -20.609375 18.203125 -20.484375 Z M 18.203125 -20.484375 "/></g></g></g><g fill="#fdfdfd" fill-opacity="1"><g transform="translate(237.058858, 219.5766)"><g><path d="M 0.453125 -1.765625 C 0.515625 -2.429688 0.71875 -3.09375 1.0625 -3.75 C 1.414062 -4.40625 1.832031 -4.945312 2.3125 -5.375 C 4.445312 -4.070312 6.476562 -3.421875 8.40625 -3.421875 C 9.238281 -3.421875 9.847656 -3.609375 10.234375 -3.984375 C 10.628906 -4.367188 10.828125 -4.84375 10.828125 -5.40625 C 10.828125 -6.34375 10.195312 -7.082031 8.9375 -7.625 L 5.40625 -9.125 C 4.019531 -9.738281 2.957031 -10.476562 2.21875 -11.34375 C 1.476562 -12.21875 1.109375 -13.328125 1.109375 -14.671875 C 1.109375 -15.585938 1.289062 -16.425781 1.65625 -17.1875 C 2.03125 -17.945312 2.550781 -18.609375 3.21875 -19.171875 C 3.894531 -19.734375 4.691406 -20.164062 5.609375 -20.46875 C 6.523438 -20.78125 7.546875 -20.9375 8.671875 -20.9375 C 10.910156 -20.9375 13.171875 -20.367188 15.453125 -19.234375 C 15.347656 -17.691406 14.804688 -16.488281 13.828125 -15.625 C 11.785156 -16.601562 9.988281 -17.09375 8.4375 -17.09375 C 7.632812 -17.09375 7.03125 -16.910156 6.625 -16.546875 C 6.226562 -16.191406 6.03125 -15.785156 6.03125 -15.328125 C 6.03125 -14.546875 6.617188 -13.914062 7.796875 -13.4375 L 11.40625 -11.90625 C 12.925781 -11.269531 14.0625 -10.453125 14.8125 -9.453125 C 15.5625 -8.453125 15.9375 -7.289062 15.9375 -5.96875 C 15.9375 -5.03125 15.765625 -4.171875 15.421875 -3.390625 C 15.078125 -2.609375 14.570312 -1.929688 13.90625 -1.359375 C 13.238281 -0.796875 12.40625 -0.351562 11.40625 -0.03125 C 10.40625 0.289062 9.234375 0.453125 7.890625 0.453125 C 5.285156 0.453125 2.804688 -0.285156 0.453125 -1.765625 Z M 0.453125 -1.765625 "/></g></g></g><g fill="#fdfdfd" fill-opacity="1"><g transform="translate(253.768833, 219.5766)"><g/></g></g><g fill="#fdfdfd" fill-opacity="1"><g transform="translate(260.368823, 219.5766)"><g><path d="M 12.984375 -12.328125 L 12.984375 -12.6875 C 12.984375 -15.644531 11.882812 -17.125 9.6875 -17.125 C 8.425781 -17.125 7.515625 -16.550781 6.953125 -15.40625 C 6.398438 -14.257812 6.125 -12.5625 6.125 -10.3125 C 6.125 -8.09375 6.472656 -6.441406 7.171875 -5.359375 C 7.867188 -4.285156 8.890625 -3.75 10.234375 -3.75 C 10.929688 -3.75 11.703125 -3.910156 12.546875 -4.234375 C 13.398438 -4.566406 14.328125 -5.09375 15.328125 -5.8125 C 15.828125 -5.476562 16.289062 -5.015625 16.71875 -4.421875 C 17.15625 -3.835938 17.421875 -3.273438 17.515625 -2.734375 C 17.054688 -2.285156 16.519531 -1.867188 15.90625 -1.484375 C 15.300781 -1.097656 14.644531 -0.765625 13.9375 -0.484375 C 13.226562 -0.203125 12.488281 0.0195312 11.71875 0.1875 C 10.945312 0.363281 10.171875 0.453125 9.390625 0.453125 C 7.847656 0.453125 6.546875 0.160156 5.484375 -0.421875 C 4.429688 -1.015625 3.578125 -1.800781 2.921875 -2.78125 C 2.273438 -3.769531 1.804688 -4.898438 1.515625 -6.171875 C 1.222656 -7.453125 1.078125 -8.785156 1.078125 -10.171875 C 1.078125 -11.972656 1.300781 -13.546875 1.75 -14.890625 C 2.207031 -16.242188 2.816406 -17.367188 3.578125 -18.265625 C 4.347656 -19.171875 5.253906 -19.847656 6.296875 -20.296875 C 7.335938 -20.742188 8.445312 -20.96875 9.625 -20.96875 C 10.832031 -20.96875 11.925781 -20.804688 12.90625 -20.484375 C 13.882812 -20.171875 14.71875 -19.734375 15.40625 -19.171875 C 16.09375 -18.609375 16.617188 -17.945312 16.984375 -17.1875 C 17.359375 -16.425781 17.546875 -15.609375 17.546875 -14.734375 C 17.546875 -12.953125 16.632812 -12.0625 14.8125 -12.0625 C 14.28125 -12.0625 13.671875 -12.148438 12.984375 -12.328125 Z M 12.984375 -12.328125 "/></g></g></g><g fill="#fdfdfd" fill-opacity="1"><g transform="translate(278.638811, 219.5766)"><g><path d="M 2.34375 0 L 2.34375 -20.484375 C 2.957031 -20.609375 3.753906 -20.671875 4.734375 -20.671875 C 5.710938 -20.671875 6.523438 -20.609375 7.171875 -20.484375 L 7.171875 0 C 6.523438 0.125 5.710938 0.1875 4.734375 0.1875 C 3.753906 0.1875 2.957031 0.125 2.34375 0 Z M 2.34375 0 "/></g></g></g><g fill="#fdfdfd" fill-opacity="1"><g transform="translate(288.148805, 219.5766)"><g><path d="M 10.046875 -16.53125 L 10.078125 -14.3125 L 10.078125 0 C 9.398438 0.125 8.585938 0.1875 7.640625 0.1875 C 6.703125 0.1875 5.914062 0.125 5.28125 0 L 5.28125 -16.53125 L 3.359375 -16.5 L 0.265625 -16.5 C 0.148438 -17.082031 0.09375 -17.75 0.09375 -18.5 C 0.09375 -19.25 0.148438 -19.910156 0.265625 -20.484375 L 15.125 -20.484375 C 15.28125 -19.960938 15.359375 -19.332031 15.359375 -18.59375 C 15.359375 -17.851562 15.15625 -17.316406 14.75 -16.984375 C 14.351562 -16.660156 13.71875 -16.5 12.84375 -16.5 L 11.96875 -16.5 L 10.078125 -16.53125 Z M 10.046875 -16.53125 "/></g></g></g><g fill="#fdfdfd" fill-opacity="1"><g transform="translate(303.448776, 219.5766)"><g><path d="M 9.84375 -15.421875 L 11.84375 -20.484375 C 12.363281 -20.609375 13.035156 -20.671875 13.859375 -20.671875 C 14.742188 -20.671875 15.503906 -20.550781 16.140625 -20.3125 L 16.34375 -20.0625 L 10.53125 -6.296875 L 10.53125 0 C 9.90625 0.125 9.101562 0.1875 8.125 0.1875 C 7.144531 0.1875 6.347656 0.125 5.734375 0 L 5.734375 -6.421875 L -0.0625 -19.921875 C 0.851562 -20.460938 1.734375 -20.734375 2.578125 -20.734375 C 3.421875 -20.734375 4.023438 -20.585938 4.390625 -20.296875 C 4.765625 -20.003906 5.09375 -19.507812 5.375 -18.8125 L 6.8125 -15.234375 C 7.332031 -13.953125 7.78125 -12.523438 8.15625 -10.953125 L 8.34375 -10.953125 C 8.65625 -12.210938 9.15625 -13.703125 9.84375 -15.421875 Z M 9.84375 -15.421875 "/></g></g></g><g clip-path="url(#f4455afec5)"><path fill="#fbb03b" d="M 107.90625 239.78125 L 126.65625 239.617188 L 145.40625 239.523438 L 182.90625 239.445312 L 220.40625 239.519531 L 239.15625 239.617188 L 257.90625 239.78125 L 239.15625 239.945312 L 220.40625 240.042969 L 182.90625 240.117188 L 145.40625 240.039062 L 126.65625 239.945312 Z M 107.90625 239.78125 " fill-opacity="1" fill-rule="nonzero"/></g><g fill="#fdfdfd" fill-opacity="1"><g transform="translate(80.377872, 261.034699)"><g><path d="M 5.3125 -5.625 L 1.984375 -5.625 L 1.984375 -3.71875 L 5 -3.71875 L 5 -2.71875 L 1.984375 -2.71875 L 1.984375 0 L 0.875 0 L 0.875 -6.625 L 5.328125 -6.625 Z M 5.3125 -5.625 "/></g></g></g><g fill="#fdfdfd" fill-opacity="1"><g transform="translate(86.770346, 261.034699)"><g><path d="M 1.984375 0 L 0.875 0 L 0.875 -6.625 L 1.984375 -6.625 Z M 1.984375 0 "/></g></g></g><g fill="#fdfdfd" fill-opacity="1"><g transform="translate(90.577852, 261.034699)"><g><path d="M 6.625 0 L 5.515625 0 L 1.984375 -4.75 L 1.984375 0 L 0.875 0 L 0.875 -6.625 L 1.96875 -6.625 L 5.515625 -1.859375 L 5.515625 -6.625 L 6.625 -6.625 Z M 6.625 0 "/></g></g></g><g fill="#fdfdfd" fill-opacity="1"><g transform="translate(99.025031, 261.034699)"><g><path d="M 0.875 -6.625 L 3.59375 -6.625 C 4.582031 -6.625 5.398438 -6.3125 6.046875 -5.6875 C 6.691406 -5.0625 7.015625 -4.269531 7.015625 -3.3125 C 7.015625 -2.351562 6.6875 -1.5625 6.03125 -0.9375 C 5.382812 -0.3125 4.5625 0 3.5625 0 L 0.875 0 Z M 1.984375 -5.625 L 1.984375 -1 L 3.609375 -1 C 4.265625 -1 4.804688 -1.210938 5.234375 -1.640625 C 5.671875 -2.078125 5.890625 -2.628906 5.890625 -3.296875 C 5.890625 -3.972656 5.664062 -4.53125 5.21875 -4.96875 C 4.769531 -5.40625 4.21875 -5.625 3.5625 -5.625 Z M 1.984375 -5.625 "/></g></g></g><g fill="#fdfdfd" fill-opacity="1"><g transform="translate(107.311251, 261.034699)"><g/></g></g><g fill="#fdfdfd" fill-opacity="1"><g transform="translate(110.702136, 261.034699)"><g><path d="M 1.328125 -5.6875 C 2.003906 -6.332031 2.835938 -6.65625 3.828125 -6.65625 C 4.828125 -6.65625 5.660156 -6.332031 6.328125 -5.6875 C 7.003906 -5.050781 7.34375 -4.257812 7.34375 -3.3125 C 7.34375 -2.363281 7.003906 -1.566406 6.328125 -0.921875 C 5.660156 -0.273438 4.828125 0.046875 3.828125 0.046875 C 2.835938 0.046875 2.003906 -0.273438 1.328125 -0.921875 C 0.660156 -1.566406 0.328125 -2.363281 0.328125 -3.3125 C 0.328125 -4.257812 0.660156 -5.050781 1.328125 -5.6875 Z M 3.84375 -5.65625 C 3.1875 -5.65625 2.625 -5.425781 2.15625 -4.96875 C 1.6875 -4.519531 1.453125 -3.96875 1.453125 -3.3125 C 1.453125 -2.65625 1.6875 -2.097656 2.15625 -1.640625 C 2.632812 -1.179688 3.195312 -0.953125 3.84375 -0.953125 C 4.488281 -0.953125 5.039062 -1.179688 5.5 -1.640625 C 5.96875 -2.097656 6.203125 -2.65625 6.203125 -3.3125 C 6.203125 -3.96875 5.96875 -4.519531 5.5 -4.96875 C 5.039062 -5.425781 4.488281 -5.65625 3.84375 -5.65625 Z M 3.84375 -5.65625 "/></g></g></g><g fill="#fdfdfd" fill-opacity="1"><g transform="translate(119.319754, 261.034699)"><g><path d="M 6.5 -6.625 L 6.5 -2.75 C 6.5 -1.882812 6.242188 -1.203125 5.734375 -0.703125 C 5.222656 -0.203125 4.519531 0.046875 3.625 0.046875 C 2.726562 0.046875 2.019531 -0.203125 1.5 -0.703125 C 0.988281 -1.203125 0.734375 -1.882812 0.734375 -2.75 L 0.734375 -6.625 L 1.859375 -6.625 L 1.859375 -2.75 C 1.859375 -2.1875 2.015625 -1.742188 2.328125 -1.421875 C 2.648438 -1.109375 3.085938 -0.953125 3.640625 -0.953125 C 4.179688 -0.953125 4.609375 -1.109375 4.921875 -1.421875 C 5.234375 -1.742188 5.390625 -2.1875 5.390625 -2.75 L 5.390625 -6.625 Z M 6.5 -6.625 "/></g></g></g><g fill="#fdfdfd" fill-opacity="1"><g transform="translate(127.50181, 261.034699)"><g><path d="M 5.390625 -5.625 L 3.296875 -5.625 L 3.296875 0 L 2.171875 0 L 2.171875 -5.625 L 0.078125 -5.625 L 0.078125 -6.625 L 5.390625 -6.625 Z M 5.390625 -5.625 "/></g></g></g><g fill="#fdfdfd" fill-opacity="1"><g transform="translate(133.93215, 261.034699)"><g/></g></g><g fill="#fdfdfd" fill-opacity="1"><g transform="translate(137.323034, 261.034699)"><g><path d="M 5.15625 -1.5 L 1.8125 -1.5 L 1.171875 0 L 0.015625 0 L 2.9375 -6.625 L 4.078125 -6.625 L 6.984375 0 L 5.78125 0 Z M 4.71875 -2.484375 L 3.46875 -5.4375 L 2.21875 -2.484375 Z M 4.71875 -2.484375 "/></g></g></g><g fill="#fdfdfd" fill-opacity="1"><g transform="translate(145.258905, 261.034699)"><g><path d="M 0.875 -6.625 L 3.75 -6.625 C 4.4375 -6.625 4.976562 -6.476562 5.375 -6.1875 C 5.769531 -5.894531 5.96875 -5.488281 5.96875 -4.96875 C 5.96875 -4.59375 5.863281 -4.273438 5.65625 -4.015625 C 5.445312 -3.753906 5.164062 -3.582031 4.8125 -3.5 C 5.25 -3.414062 5.59375 -3.222656 5.84375 -2.921875 C 6.101562 -2.628906 6.234375 -2.257812 6.234375 -1.8125 C 6.234375 -1.25 6.015625 -0.804688 5.578125 -0.484375 C 5.148438 -0.160156 4.5625 0 3.8125 0 L 0.875 0 Z M 1.984375 -5.640625 L 1.984375 -3.875 L 3.6875 -3.875 C 4.039062 -3.875 4.316406 -3.953125 4.515625 -4.109375 C 4.722656 -4.273438 4.828125 -4.492188 4.828125 -4.765625 C 4.828125 -5.046875 4.726562 -5.257812 4.53125 -5.40625 C 4.332031 -5.5625 4.050781 -5.640625 3.6875 -5.640625 Z M 1.984375 -2.890625 L 1.984375 -1 L 3.6875 -1 C 4.132812 -1 4.476562 -1.082031 4.71875 -1.25 C 4.957031 -1.414062 5.078125 -1.648438 5.078125 -1.953125 C 5.078125 -2.242188 4.953125 -2.472656 4.703125 -2.640625 C 4.460938 -2.804688 4.125 -2.890625 3.6875 -2.890625 Z M 1.984375 -2.890625 "/></g></g></g><g fill="#fdfdfd" fill-opacity="1"><g transform="translate(152.891782, 261.034699)"><g><path d="M 1.328125 -5.6875 C 2.003906 -6.332031 2.835938 -6.65625 3.828125 -6.65625 C 4.828125 -6.65625 5.660156 -6.332031 6.328125 -5.6875 C 7.003906 -5.050781 7.34375 -4.257812 7.34375 -3.3125 C 7.34375 -2.363281 7.003906 -1.566406 6.328125 -0.921875 C 5.660156 -0.273438 4.828125 0.046875 3.828125 0.046875 C 2.835938 0.046875 2.003906 -0.273438 1.328125 -0.921875 C 0.660156 -1.566406 0.328125 -2.363281 0.328125 -3.3125 C 0.328125 -4.257812 0.660156 -5.050781 1.328125 -5.6875 Z M 3.84375 -5.65625 C 3.1875 -5.65625 2.625 -5.425781 2.15625 -4.96875 C 1.6875 -4.519531 1.453125 -3.96875 1.453125 -3.3125 C 1.453125 -2.65625 1.6875 -2.097656 2.15625 -1.640625 C 2.632812 -1.179688 3.195312 -0.953125 3.84375 -0.953125 C 4.488281 -0.953125 5.039062 -1.179688 5.5 -1.640625 C 5.96875 -2.097656 6.203125 -2.65625 6.203125 -3.3125 C 6.203125 -3.96875 5.96875 -4.519531 5.5 -4.96875 C 5.039062 -5.425781 4.488281 -5.65625 3.84375 -5.65625 Z M 3.84375 -5.65625 "/></g></g></g><g fill="#fdfdfd" fill-opacity="1"><g transform="translate(161.5094, 261.034699)"><g><path d="M 6.5 -6.625 L 6.5 -2.75 C 6.5 -1.882812 6.242188 -1.203125 5.734375 -0.703125 C 5.222656 -0.203125 4.519531 0.046875 3.625 0.046875 C 2.726562 0.046875 2.019531 -0.203125 1.5 -0.703125 C 0.988281 -1.203125 0.734375 -1.882812 0.734375 -2.75 L 0.734375 -6.625 L 1.859375 -6.625 L 1.859375 -2.75 C 1.859375 -2.1875 2.015625 -1.742188 2.328125 -1.421875 C 2.648438 -1.109375 3.085938 -0.953125 3.640625 -0.953125 C 4.179688 -0.953125 4.609375 -1.109375 4.921875 -1.421875 C 5.234375 -1.742188 5.390625 -2.1875 5.390625 -2.75 L 5.390625 -6.625 Z M 6.5 -6.625 "/></g></g></g><g fill="#fdfdfd" fill-opacity="1"><g transform="translate(169.691455, 261.034699)"><g><path d="M 5.390625 -5.625 L 3.296875 -5.625 L 3.296875 0 L 2.171875 0 L 2.171875 -5.625 L 0.078125 -5.625 L 0.078125 -6.625 L 5.390625 -6.625 Z M 5.390625 -5.625 "/></g></g></g><g fill="#fdfdfd" fill-opacity="1"><g transform="translate(176.121799, 261.034699)"><g/></g></g><g fill="#fdfdfd" fill-opacity="1"><g transform="translate(179.512677, 261.034699)"><g><path d="M 5.390625 -5.625 L 3.296875 -5.625 L 3.296875 0 L 2.171875 0 L 2.171875 -5.625 L 0.078125 -5.625 L 0.078125 -6.625 L 5.390625 -6.625 Z M 5.390625 -5.625 "/></g></g></g><g fill="#fdfdfd" fill-opacity="1"><g transform="translate(185.94302, 261.034699)"><g><path d="M 6.625 0 L 5.5 0 L 5.5 -2.75 L 1.984375 -2.75 L 1.984375 0 L 0.875 0 L 0.875 -6.625 L 1.984375 -6.625 L 1.984375 -3.75 L 5.5 -3.75 L 5.5 -6.625 L 6.625 -6.625 Z M 6.625 0 "/></g></g></g><g fill="#fdfdfd" fill-opacity="1"><g transform="translate(194.380737, 261.034699)"><g><path d="M 5.609375 -5.625 L 1.984375 -5.625 L 1.984375 -3.828125 L 5.234375 -3.828125 L 5.234375 -2.828125 L 1.984375 -2.828125 L 1.984375 -1 L 5.71875 -1 L 5.71875 0 L 0.875 0 L 0.875 -6.625 L 5.609375 -6.625 Z M 5.609375 -5.625 "/></g></g></g><g fill="#fdfdfd" fill-opacity="1"><g transform="translate(201.540172, 261.034699)"><g/></g></g><g fill="#fdfdfd" fill-opacity="1"><g transform="translate(204.931056, 261.034699)"><g><path d="M 1.984375 -1.015625 L 4.859375 -1.015625 L 4.859375 0 L 0.875 0 L 0.875 -6.625 L 1.984375 -6.625 Z M 1.984375 -1.015625 "/></g></g></g><g fill="#fdfdfd" fill-opacity="1"><g transform="translate(210.935313, 261.034699)"><g><path d="M 5.15625 -1.5 L 1.8125 -1.5 L 1.171875 0 L 0.015625 0 L 2.9375 -6.625 L 4.078125 -6.625 L 6.984375 0 L 5.78125 0 Z M 4.71875 -2.484375 L 3.46875 -5.4375 L 2.21875 -2.484375 Z M 4.71875 -2.484375 "/></g></g></g><g fill="#fdfdfd" fill-opacity="1"><g transform="translate(218.871184, 261.034699)"><g><path d="M 5.390625 -5.625 L 3.296875 -5.625 L 3.296875 0 L 2.171875 0 L 2.171875 -5.625 L 0.078125 -5.625 L 0.078125 -6.625 L 5.390625 -6.625 Z M 5.390625 -5.625 "/></g></g></g><g fill="#fdfdfd" fill-opacity="1"><g transform="translate(225.301527, 261.034699)"><g><path d="M 5.609375 -5.625 L 1.984375 -5.625 L 1.984375 -3.828125 L 5.234375 -3.828125 L 5.234375 -2.828125 L 1.984375 -2.828125 L 1.984375 -1 L 5.71875 -1 L 5.71875 0 L 0.875 0 L 0.875 -6.625 L 5.609375 -6.625 Z M 5.609375 -5.625 "/></g></g></g><g fill="#fdfdfd" fill-opacity="1"><g transform="translate(232.460962, 261.034699)"><g><path d="M 3.046875 -6.671875 C 3.910156 -6.671875 4.6875 -6.445312 5.375 -6 L 4.90625 -5.015625 C 4.226562 -5.421875 3.582031 -5.625 2.96875 -5.625 C 2.632812 -5.625 2.367188 -5.5625 2.171875 -5.4375 C 1.984375 -5.320312 1.890625 -5.15625 1.890625 -4.9375 C 1.890625 -4.71875 1.976562 -4.53125 2.15625 -4.375 C 2.332031 -4.21875 2.550781 -4.101562 2.8125 -4.03125 C 3.070312 -3.957031 3.359375 -3.863281 3.671875 -3.75 C 3.984375 -3.644531 4.269531 -3.53125 4.53125 -3.40625 C 4.800781 -3.28125 5.019531 -3.085938 5.1875 -2.828125 C 5.363281 -2.566406 5.453125 -2.25 5.453125 -1.875 C 5.453125 -1.289062 5.21875 -0.828125 4.75 -0.484375 C 4.289062 -0.140625 3.691406 0.03125 2.953125 0.03125 C 2.453125 0.03125 1.960938 -0.0625 1.484375 -0.25 C 1.015625 -0.4375 0.601562 -0.691406 0.25 -1.015625 L 0.734375 -1.984375 C 1.066406 -1.671875 1.429688 -1.429688 1.828125 -1.265625 C 2.234375 -1.097656 2.613281 -1.015625 2.96875 -1.015625 C 3.363281 -1.015625 3.671875 -1.082031 3.890625 -1.21875 C 4.109375 -1.363281 4.21875 -1.5625 4.21875 -1.8125 C 4.21875 -2.039062 4.128906 -2.234375 3.953125 -2.390625 C 3.773438 -2.546875 3.550781 -2.660156 3.28125 -2.734375 C 3.019531 -2.804688 2.734375 -2.894531 2.421875 -3 C 2.109375 -3.101562 1.820312 -3.210938 1.5625 -3.328125 C 1.300781 -3.441406 1.082031 -3.628906 0.90625 -3.890625 C 0.726562 -4.148438 0.640625 -4.460938 0.640625 -4.828125 C 0.640625 -5.390625 0.859375 -5.835938 1.296875 -6.171875 C 1.734375 -6.503906 2.316406 -6.671875 3.046875 -6.671875 Z M 3.046875 -6.671875 "/></g></g></g><g fill="#fdfdfd" fill-opacity="1"><g transform="translate(239.298463, 261.034699)"><g><path d="M 5.390625 -5.625 L 3.296875 -5.625 L 3.296875 0 L 2.171875 0 L 2.171875 -5.625 L 0.078125 -5.625 L 0.078125 -6.625 L 5.390625 -6.625 Z M 5.390625 -5.625 "/></g></g></g><g fill="#fdfdfd" fill-opacity="1"><g transform="translate(245.728806, 261.034699)"><g/></g></g><g fill="#fdfdfd" fill-opacity="1"><g transform="translate(249.11969, 261.034699)"><g><path d="M 5.609375 -5.625 L 1.984375 -5.625 L 1.984375 -3.828125 L 5.234375 -3.828125 L 5.234375 -2.828125 L 1.984375 -2.828125 L 1.984375 -1 L 5.71875 -1 L 5.71875 0 L 0.875 0 L 0.875 -6.625 L 5.609375 -6.625 Z M 5.609375 -5.625 "/></g></g></g><g fill="#fdfdfd" fill-opacity="1"><g transform="translate(256.279125, 261.034699)"><g><path d="M 3.828125 0 L 2.671875 0 L 0.03125 -6.625 L 1.234375 -6.625 L 3.28125 -1.234375 L 5.34375 -6.625 L 6.5 -6.625 Z M 3.828125 0 "/></g></g></g><g fill="#fdfdfd" fill-opacity="1"><g transform="translate(263.760505, 261.034699)"><g><path d="M 5.609375 -5.625 L 1.984375 -5.625 L 1.984375 -3.828125 L 5.234375 -3.828125 L 5.234375 -2.828125 L 1.984375 -2.828125 L 1.984375 -1 L 5.71875 -1 L 5.71875 0 L 0.875 0 L 0.875 -6.625 L 5.609375 -6.625 Z M 5.609375 -5.625 "/></g></g></g><g fill="#fdfdfd" fill-opacity="1"><g transform="translate(270.91994, 261.034699)"><g><path d="M 6.625 0 L 5.515625 0 L 1.984375 -4.75 L 1.984375 0 L 0.875 0 L 0.875 -6.625 L 1.96875 -6.625 L 5.515625 -1.859375 L 5.515625 -6.625 L 6.625 -6.625 Z M 6.625 0 "/></g></g></g><g fill="#fdfdfd" fill-opacity="1"><g transform="translate(279.367109, 261.034699)"><g><path d="M 5.390625 -5.625 L 3.296875 -5.625 L 3.296875 0 L 2.171875 0 L 2.171875 -5.625 L 0.078125 -5.625 L 0.078125 -6.625 L 5.390625 -6.625 Z M 5.390625 -5.625 "/></g></g></g><g fill="#fdfdfd" fill-opacity="1"><g transform="translate(285.797453, 261.034699)"><g><path d="M 3.046875 -6.671875 C 3.910156 -6.671875 4.6875 -6.445312 5.375 -6 L 4.90625 -5.015625 C 4.226562 -5.421875 3.582031 -5.625 2.96875 -5.625 C 2.632812 -5.625 2.367188 -5.5625 2.171875 -5.4375 C 1.984375 -5.320312 1.890625 -5.15625 1.890625 -4.9375 C 1.890625 -4.71875 1.976562 -4.53125 2.15625 -4.375 C 2.332031 -4.21875 2.550781 -4.101562 2.8125 -4.03125 C 3.070312 -3.957031 3.359375 -3.863281 3.671875 -3.75 C 3.984375 -3.644531 4.269531 -3.53125 4.53125 -3.40625 C 4.800781 -3.28125 5.019531 -3.085938 5.1875 -2.828125 C 5.363281 -2.566406 5.453125 -2.25 5.453125 -1.875 C 5.453125 -1.289062 5.21875 -0.828125 4.75 -0.484375 C 4.289062 -0.140625 3.691406 0.03125 2.953125 0.03125 C 2.453125 0.03125 1.960938 -0.0625 1.484375 -0.25 C 1.015625 -0.4375 0.601562 -0.691406 0.25 -1.015625 L 0.734375 -1.984375 C 1.066406 -1.671875 1.429688 -1.429688 1.828125 -1.265625 C 2.234375 -1.097656 2.613281 -1.015625 2.96875 -1.015625 C 3.363281 -1.015625 3.671875 -1.082031 3.890625 -1.21875 C 4.109375 -1.363281 4.21875 -1.5625 4.21875 -1.8125 C 4.21875 -2.039062 4.128906 -2.234375 3.953125 -2.390625 C 3.773438 -2.546875 3.550781 -2.660156 3.28125 -2.734375 C 3.019531 -2.804688 2.734375 -2.894531 2.421875 -3 C 2.109375 -3.101562 1.820312 -3.210938 1.5625 -3.328125 C 1.300781 -3.441406 1.082031 -3.628906 0.90625 -3.890625 C 0.726562 -4.148438 0.640625 -4.460938 0.640625 -4.828125 C 0.640625 -5.390625 0.859375 -5.835938 1.296875 -6.171875 C 1.734375 -6.503906 2.316406 -6.671875 3.046875 -6.671875 Z M 3.046875 -6.671875 "/></g></g></g><g fill="#fdfdfd" fill-opacity="1"><g transform="translate(292.634954, 261.034699)"><g><path d="M 1.640625 -4.921875 L 1.484375 -2.109375 L 0.78125 -2.109375 L 0.609375 -4.921875 L 0.609375 -6.546875 L 1.640625 -6.546875 Z M 0.703125 -0.984375 C 0.816406 -1.109375 0.957031 -1.171875 1.125 -1.171875 C 1.300781 -1.171875 1.445312 -1.109375 1.5625 -0.984375 C 1.675781 -0.867188 1.734375 -0.722656 1.734375 -0.546875 C 1.734375 -0.367188 1.675781 -0.21875 1.5625 -0.09375 C 1.445312 0.0195312 1.300781 0.078125 1.125 0.078125 C 0.957031 0.078125 0.816406 0.0195312 0.703125 -0.09375 C 0.597656 -0.21875 0.546875 -0.367188 0.546875 -0.546875 C 0.546875 -0.722656 0.597656 -0.867188 0.703125 -0.984375 Z M 0.703125 -0.984375 "/></g></g></g></svg>